<svg xmlns="http://www.w3.org/2000/svg" viewBox="0 0 694.3 220.7">
  <path d="M393.3 60.4c.4 0 .9 0 1.3-.1 6.6-.7 12.5-6.1 13.5-12.8 1-6.6-3.2-12.1-9.6-12.8-.4 0-.9-.1-1.3-.1s-.9 0-1.3.1c-6.6.7-12.5 6.1-13.5 12.8-.5 3.5.4 6.6 2.3 9 2 2.4 5 3.9 8.6 3.9z"></path>
  <path d="M694.3 167.8c0-17.6-8.6-33.7-16.2-47.9-6.5-12.1-12.3-23.1-10.8-31.3 1.1-5.9 5.3-9.3 11.8-9.7.2 0 .4-.1.6-.1.3-.1.6-.3.9-.5.3-.2.5-.5.6-.8 0-.1.1-.1.1-.2l3.2-8.3c.3-.9.4-1.5.1-2.1-.2-.4-.5-.8-1-1.2-.6-.5-1.6-.9-2.9-1.3-1.8-.6-4.1-1-6.2-1-9.4 0-20.9 3.1-30.9 28-.4 1-19.7 51-20.3 52.6-2.4 5.9-7.5 13-18.3 13-4.7 0-8.5-1.8-10.6-4.8-.4-.6-.7-1.2-1-1.8-.8-2-1.1-4.4-.6-7 .2-.9.4-1.9.7-2.9.5-1.7 1.2-3.6 2-5.5 7.4-18.9 33.7-86.2 41.8-106.9 1-2.6-.4-4.7-3.2-4.7h-9.3c-1 0-2.1.3-3 .8-1.7.8-3.1 2.3-3.8 3.9-3.6 9.1-8.7 22.3-14.1 36.2-4.2 10.7-8.5 21.8-12.5 31.9-1.2-2-2.6-3.9-4.1-5.7-1.6-1.8-3.3-3.5-5.1-5-7.8-6.4-17.7-9.9-28.6-9.9-13.4 0-26.3 5.4-36.4 14.2-.4.3-.7.7-1.1 1-.3.2-.5.5-.8.7-6.6 6.2-11.8 13.9-15 22.4 0 .1-.1.2-.1.4-.4 1.1-.7 2.2-1.1 3.4-.6 2.1-1.1 4.2-1.4 6.4-.3 2-.5 4-.6 6-.2 5.8.7 11.5 2.5 16.7-.9 1.5-2.1 2.9-3.4 4.2-3.7 3.5-8.6 5.8-13.7 6.2h-1.4c-2 0-3.9-.4-5.6-1-2.1-.8-3.9-2.1-5.1-3.8-2.3-3.3-2.3-8.1-.2-13.6.5-1.4 3.7-9.9 6.6-17.5 2.2-5.9 4.2-11.4 4.6-12.5.2-.6.6-1.5.9-2.6.5-2.1.8-5-.6-8-.6-1.2-1.3-2.2-2.1-3.1-1.6-1.7-3.7-2.7-5.7-3.5-.8-.3-1.6-.6-2.4-.8-1.4-.4-2.9-1-4.6-1.7-.1 0-.1-.1-.2-.1-2.8-1.2-16.3-7.5-16.3-19.5v-.8-.3-.4c-.2-1.8-.8-2.9-1.6-3.5-.1 0-.1-.1-.2-.1h-.1c-.1-.1-.2-.1-.3-.2h-.1-.1c-.1 0-.1-.1-.2-.1-.5-.2-1-.3-1.6-.3H437c-1.9 0-4 1-5.4 2.5-.6.6-1.1 1.4-1.4 2.2-2 5.1-4.4 11.2-6.9 17.7-8.8 22.6-19.3 49.7-22.3 57.4l-.3.9c-2.4 5.9-7.5 13-18.4 13-4.7 0-8.6-1.8-10.6-4.8-1.2-1.8-1.8-4.1-1.7-6.8.1-2.1.6-4.4 1.5-6.8 1.9-5 6-15.4 10.3-26.4 4.1-10.5 8.4-21.7 11.4-29.3 1-2.6-.4-4.7-3.2-4.7H379.8c-.6 0-1.3.1-2 .3h-.2c-2.2.6-4.4 2.1-5.7 3.7-4.8 5.8-11 10.5-17.8 13.9-6.8 3.4-14.1 5.6-21.1 6.4-1-2.6-2.3-5.2-3.9-7.6-.1-.1-.1-.2-.2-.3-1-1.5-2-2.9-3.2-4.3-8.3-9.6-20.2-14.9-33.7-14.9-7.2 0-14.2 1.6-20.8 4.4 3.3-8.5 6.6-17.1 9.7-25.2 3.8-9.9 7.4-19.1 10.3-26.7.5-1.2.4-2.2 0-3.1-.5-1-1.6-1.6-3.1-1.6H278.7c-1.1 0-2.3.4-3.4 1-1.3.7-2.4 1.7-3 2.9-.1.3-.3.5-.4.8C260 58.7 241 107.8 232 131.3c-2.5 6.4-4.2 11-4.9 12.7-2.4 5.9-7.5 13-18.3 13-1 0-1.9-.1-2.7-.2-3.4-.6-6.3-2.1-7.9-4.6-.3-.5-.6-1-.9-1.6-.9-2-1.2-4.5-.7-7.2.2-1.3.9-3.4 1.7-5.5 1.1-3 2.2-5.9 2.2-5.9s4-10.2 9.7-25c.6-1.6 1.3-3.3 2-5.1.1-.2.2-.4.2-.6 8.8-22.6 20.6-53.1 29.1-75.1 3.4-8.9 6.3-16.4 8.3-21.4 1-2.6-.4-4.7-3.2-4.7h-9.3c-2.8 0-5.8 2.1-6.8 4.7-1.1 2.8-10.9 28.2-21.9 56.6-14.2 36.6-30.3 78.2-32 82.7-.4.9-.8 1.8-1.3 2.7-1.5 2.9-3.8 5.7-7 7.7-2.6 1.6-6 2.6-10.1 2.7-3.8 0-7-1.1-9.2-3.2-.5-.5-1-1-1.5-1.6-1.5-2.3-2.1-5.2-1.5-8.6v-.1c.5-2.9 4.4-13.1 4.4-13.3 2.5-6.4 5.4-14 8.5-22.1 10.3-26.5 22.9-59.3 31-80 .2-.6.3-1.2.3-1.8-.1-.8-.4-1.6-1-2.1s-1.4-.8-2.5-.8h-9.3c-1 0-2.1.3-3.1.8-1.4.7-2.6 1.8-3.3 3.1-.1.2-.3.5-.4.7-2.4 6.1-5 12.9-7.8 20.1-3 7.8-6.2 16.1-9.5 24.4-12.8 33-25.5 66.1-27.6 71.4-.7 1.7-1.6 3.4-2.7 5.1-3 4.3-7.8 7.9-15.7 7.9-2.9 0-5.5-.7-7.6-1.9-1.2-.8-2.3-1.7-3-2.9-.5-.8-.9-1.6-1.2-2.5-.6-1.8-.7-3.9-.3-6.2.5-2.8 3.3-10.1 3.8-11.2 0-.1.1-.2.1-.2L118.2 83c1-2.6-.4-4.7-3.2-4.7h-9.3c-1.7 0-3.5.8-4.9 2-.1 0-.1.1-.1.1-.8.7-1.4 1.6-1.7 2.5l-1.9 5-3 7.8-1.8-2.7c-.6-.9-1.3-1.7-2-2.5-3-3.5-6.6-6.5-10.5-8.8-6.7-4-14.6-6.1-23.1-6.1-20.9 0-40.7 13.2-50.4 31.8-2.7 5.2-4.6 10.8-5.5 16.6-2.1 13.6 1.4 26.5 9.8 36.2 2.6 3 5.5 5.6 8.8 7.7.6.4 1.3.8 2 1.2 6.7 3.9 14.5 6 22.9 6 13.5 0 26.6-5.6 36.8-14.5.3.6.7 1.2 1.1 1.8.2.3.5.7.7 1 0 .1.1.1.1.2.2.3.5.6.7.9.2.2.4.4.5.6.1.2.3.3.5.5.3.3.6.6.8.9l.3.3c.4.3.7.7 1.1 1l.1.1c3.4 2.9 7.7 5.2 12.7 6.4.1 0 .2.1.3.1l1.5.3c.2 0 .4.1.7.1.4.1.8.1 1.3.2.4 0 .7.1 1.1.1.3 0 .6.1 1 .1.7 0 1.4.1 2.2.1 5.2 0 10.1-1 14.6-2.9 1.7-.7 3.3-1.5 4.8-2.5.5-.3 1-.6 1.5-1 2-1.4 3.9-2.9 5.6-4.7.6.8 1.3 1.5 2 2.2 4.6 4.7 10.8 7.6 17.9 8.5.2 0 .5.1.7.1h.6c.4 0 .8.1 1.2.1h1.8c10.4 0 19.6-3.9 26.4-10.9 2.6 3.2 5.9 5.8 9.7 7.7 4.3 2.1 9.2 3.2 14.4 3.2 2.7 0 5.3-.3 7.8-.8 10.9-2.2 19.9-9.1 25.4-19.5.3.5.6.9.9 1.4l1.2 1.8c.6.8 1.2 1.5 1.8 2.3 8.3 9.6 20.2 14.9 33.7 14.9 18.4 0 36-10.3 46.5-25.3 4.8-6.9 8.1-14.7 9.4-23 .3-2.1.5-4.2.6-6.3 1.8-.2 3.6-.5 5.3-.9 7.7-1.5 14.9-4 21.3-7.4-.2.5-.4 1.1-.6 1.6-3 7.9-5.7 14.7-7.1 18.4-4.4 11.1-3.7 21.9 2 30.3 2.1 3.1 4.8 5.7 7.9 7.7 5 3.2 11 5 17.6 5 15.9 0 29-9.1 35.2-24.5.8-2 2.4-6.2 4.5-11.7 4.4-11.3 11-28.3 17-43.7.5-1.4 1.1-2.8 1.6-4.1 5.2 6.5 12.2 11.4 19 14.3.4.2.7.3 1.1.5.8.3 1.6.6 2.3.9-3.4 9.2-8.8 23.8-9.5 25.4-2.7 6.9-3.5 13.6-2.3 19.7.7 3.8 2.2 7.4 4.3 10.6 1.4 2 3 3.8 4.8 5.4 5 4.3 11.5 6.9 18.7 7.3.7 0 1.3.1 2 .1 1.1 0 2.2-.1 3.3-.2.2 0 .5 0 .7-.1h.3c4.6-.5 9-1.9 13.1-3.9 4.2-2.1 8-4.9 11.2-8.2 6.3 6.2 14.4 10.2 23.5 11.7 2.5.4 5.1.6 7.8.6 3.4 0 6.8-.4 10.1-1 9.1-1.8 17.7-6.1 24.9-12 .7-.5 1.3-1.1 1.9-1.7.4.7.8 1.4 1.2 2 3.5 5.1 8.5 8.8 14.4 10.9.3.1.6.2.8.3.3.1.7.2 1 .3.4.1.7.2 1.1.3.3.1.6.1.9.2.4.1.7.2 1.1.2.3.1.6.1.9.2.4.1.7.1 1.1.1.4 0 .8.1 1.2.1.3 0 .6.1.9.1.7 0 1.4.1 2.2.1 15.9 0 29-9.1 35.2-24.5.3-.9 6.1-15.4 10.8-27.4 1.4-3.6 2.7-7 3.7-9.7.5 1.1 1.1 2.3 1.6 3.4 1.9 3.8 3.9 7.7 6 11.7 1.7 3.2 3.5 6.5 5.1 9.8 4.9 9.8 9 19.8 9 29.6 0 28.9-19.6 34-25.6 34.9-4 .6-7 3.7-7.6 7.5-.1.9-.2 1.8 0 2.7 0 .3.1.6.2.8 1 4 4.6 6.9 8.7 6.9h1.4c4.7-.7 9.7-2.2 14.4-4.5 13.9-7.8 26.4-23 26.4-48.9zm-115.2-43.9c-1.7 11.8-9.2 22.2-19 28.1-.1.1-.3.2-.4.2 0 0-.1 0-.1.1-5.2 3-11 4.7-17 4.7-2.8 0-5.5-.4-8-1.2-4.4-1.4-8.3-3.9-11.2-7.4-2.9-3.5-4.7-7.8-5.4-12.6v-.1c-.4-2.9-.4-5.9.1-9 .7-4.6 2.2-9 4.5-13 3-5.4 7.2-10 12.1-13.5 5.9-4.1 12.8-6.6 19.9-6.6 4.8 0 9.2 1.1 12.9 3.3 2.4 1.4 4.5 3.2 6.3 5.3.9 1.1 1.7 2.2 2.3 3.4 2.3 4 3.4 8.7 3.4 13.7 0 1.5-.1 3-.4 4.6zm-307.5 32.2c-4.9-1.3-9.1-3.9-12.2-7.8-4.7-5.7-6.6-13.4-5.4-21.7v-.1c.3-2.1.8-3.9 1.3-5.4.7-1.8 1.4-3.7 2.2-5.6.1-.3.3-.5.4-.8.3-.5.5-1 .8-1.5.1-.2.2-.3.3-.5 2.2-3.7 4.9-7 8-9.8 6.6-5.8 14.9-9.4 23.5-9.4 3.9 0 7.6.8 10.8 2.2 3.3 1.5 6.1 3.6 8.4 6.4 4.7 5.7 6.6 13.4 5.4 21.8-2.7 18.2-19.1 33.1-36.6 33.1-2.4 0-4.7-.3-6.9-.9zm-226.3.9c-7.9 0-14.7-3.1-19.3-8.6-.5-.6-.9-1.2-1.3-1.8-3.8-5.5-5.2-12.5-4.1-20 2.7-18.2 19.2-33.1 36.8-33.1 7.9 0 14.7 3.1 19.3 8.6 4.7 5.7 6.7 13.4 5.4 21.8-.2 1.4-.5 2.8-.9 4.2-4.4 16.2-19.7 28.9-35.9 28.9z"></path>
</svg>